<svg height="320" viewBox="0 0 240 240" width="320" xmlns="http://www.w3.org/2000/svg"><path d="m97 1.4c-.3.2-1.9.7-3.5 1-1.7.2-3.2.5-3.5.6s-.9.3-1.5.4c-8.1 1.1-34.1 13.3-39.5 18.6-.9.8-2.8 2.4-4.4 3.5-4.1 3-14.3 13.6-19.3 20.2-7.5 10.1-16.9 30.1-18.7 40.3-.2 1.4-.9 4.5-1.5 7-4.4 19.3-3 44.4 3.6 65.5 2.6 8.3 10.1 23.4 15.4 31.1 5.3 7.6 14.7 17.7 20.8 22.2 2 1.5 4 3.3 4.4 3.9.4.7 1.4 1.3 2.2 1.3.7 0 1.5.3 1.7.7 1.2 2.8 24.9 13.9 31.6 14.8 3.5.5 3.1-4.6-.6-6.7-11.2-6.7-24-21.6-30.7-36.1-5.8-12.6-12.4-36.2-12.9-46.2-.1-1.7-.5-3.5-.8-4-.8-1.3-.2-40.9.6-45.5.4-1.9 1.1-5.9 1.7-8.7.6-2.9 1-5.5 1-5.8 0-.2.5-1.9 1-3.7.6-1.8 1.2-4 1.4-4.8 1.4-6.1 8.9-22.8 12.2-27 10.1-13.1 17.4-19.8 27.3-24.9 5-2.6 11.8-5.2 13-5 .3 0 1.9-.5 3.5-1.1 4.6-1.8 17-2.7 26.5-2 2 .2 8.4 1.3 14 2.5 4 .8 17.5 6.9 19 8.5.3.3 2.1 1.7 4 3 5.6 3.7 13.8 12.6 18.4 19.8 8 12.6 12.1 23.5 15.2 40.7.3 1.6.8 4.1 1 5.5 3.2 15.8 2.3 51.1-1.8 66.5-.6 2.2-1.2 5.2-1.5 6.8-1.6 10-11.2 31.6-18.4 41.3-5.1 6.9-14.4 15.8-20 19.1-5.1 3-6.2 8.8-1.5 7.9 6.9-1.4 26.9-10.9 31.4-14.9 1-1 2.3-1.7 2.8-1.7 2.3-.1 17.3-14.8 23.8-23.4 8.3-11.1 18-30.9 19.1-39.1.2-1.1.8-4 1.5-6.4 2-7.7 2.5-13.3 2.4-30.1-.1-17-1.1-24.4-5.4-38.3-4.5-14.6-13.6-30.5-24-42-4.9-5.4-19.1-17.7-20.5-17.7-.3 0-2.5-1.3-4.8-2.8-7.3-4.9-22.7-11.2-34.2-13.9-3.5-.8-50.8-1.7-51.5-.9z"/><path d="m100.6 27.2c-.9.5-1.6.6-1.6.3s-.6 0-1.4.7c-1.2 1.1-.8 1.9 2.7 5.3 4.5 4.3 8 8.5 7.2 8.5-.3 0 .2 1.1 1 2.4 2.2 3.3 2.6 5.8 2.6 17.1-.1 15.8-.3 16.5-4.8 16.5-3.6 0-10.9 4-12.6 6.9-1.3 2.2-1.5 5.4-1.2 17.6.4 13.8 1.1 25.2 2 31.5.2 1.4.7 5.4 1 9 .9 9.6 1.2 11.6 2.6 17.1 1.3 5.1 2.1 6.1 9.8 13.3 2.2 2.1 4.1 4.4 4.2 5 .8 8.5-.2 10.6-5.2 10.6-5.3 0-6.6 1.4-6.7 6.9l-.2 4.9 3.3-.4c1.7-.3 3.7-.7 4.3-.9s1.7 0 2.3.5c.9.5.5.8-1 .8-4.7.1-11.8 1-12.7 1.6-.5.3-.9 1.6-.8 2.8.1 1.3-.1 4-.5 6-.8 4.9 0 5.8 5.4 6.1 2.5.1 4.3.4 4.1.7-1 .9-8.9.7-9.5-.3-1.2-1.8-2.7.3-3.8 5.4-2.1 9.9-1.7 11 4.9 12.4.8.2 2.7.6 4.1.9s6.5.8 11.2 1c4.8.3 9.2.8 9.7 1.1.6.3 1 .3 1-.2 0-.4 2.4-.8 5.3-.8 10 .1 24.8-2.9 24.1-4.9-.2-.6-.6-2.9-.8-5.1-.6-6.3-1.7-9.5-3.2-9.5-1 0-1.4-1.5-1.5-5.3-.3-10.7-.9-11.8-5.9-11.2-1.4.2-3.3-.1-4.1-.6-1.1-.8-1-1 .6-.8 4.2.3 4.5 0 4.3-4.4-.3-5-2-6.6-6.8-6.7-5.2-.1-5.8-.9-5.6-6.9.2-4.9.6-5.7 4.2-8.7 2.1-1.9 4.8-4.3 6-5.4 2.5-2.5 5.2-9.9 5.8-16 .3-2.5.8-7.2 1.1-10.5.4-3.3.8-7.4 1-9 1.3-11.9 1.8-20.7 1.9-32 .1-7.2.5-13.6.9-14.3.5-.7.3-1.2-.3-1.2-2.1 0-8-5.5-8-7.5 0-4.7 5.7-8.8 8.1-5.9.6.8 1.8 1.4 2.7 1.4 1.2 0 1.2-.3-.3-2-2.8-3.1-2.7-4.9.3-6.8 5.3-3.3 8.2-8.8 8.9-16.7 1.1-11.9-8.5-21.4-19.7-19.3-4.8.9-7.9 3.8-8 7.3 0 2.4-1.4 4.7-2.6 4.6-2.4-.2-4.5 1.3-5 3.7-1 3.9-1.2 4.2-3.6 3.3-2.1-.8-3.5-4.1-1.7-4.1 1.3 0-2.6-7.1-5.9-10.7-4.4-4.9-10.1-7.1-13.6-5.1zm45.8 5.9c1.9-.3 2.7.1 5 2.3 5.6 5.1 6.7 13.6 2.7 21.4-2.6 5.2-6.4 7.5-12.3 7.6-2.6 0-4.8.5-4.8.9 0 .5.4.6.9.2.5-.3 1.2-.1 1.6.4.3.6 1.2.8 1.9.5 2.7-1 2.9 1.9.3 3.8-1.4 1-2.8 3.2-3.2 4.7-.6 2.7-3.5 5.3-3.5 3.2 0-.5-1.3-.8-2.9-.7-3.3.2-3.3.4-3.4-17.7-.1-11.4 0-11.9 2.4-14.1 2.3-2.1 2.8-2.2 5-1.1 3.5 1.9 4.4.7 1.6-2.1s-2.6-5.7.4-8.7c1.1-1 1.9-1.5 1.9-1.3 0 .3 1 .2 2.3-.3s2.5-.5 2.8.1c.3.5.9.9 1.3.9zm-12.4 167.4c0 .2-.9.3-1.9.2-1.1 0-1.8-.5-1.5-.9.4-.6 3.4 0 3.4.7zm11 17.7c0 .8-7.5.6-8.4-.3-.3-.3 1.5-.5 3.9-.5 2.5-.1 4.5.3 4.5.8z"/></svg>